<svg width="20" height="20" viewBox="0 0 20 20" fill="none" xmlns="http://www.w3.org/2000/svg">
<path d="M14.9394 0.414062H5.64646C3.08029 0.414062 1 2.49436 1 5.06053V14.3535C1 16.9196 3.08029 18.9999 5.64646 18.9999H14.9394C17.5056 18.9999 19.5859 16.9196 19.5859 14.3535V5.06053C19.5859 2.49436 17.5056 0.414062 14.9394 0.414062Z" stroke="white" stroke-width="0.8" stroke-linecap="round" stroke-linejoin="round"/>
<path d="M14.01 9.12163C14.1247 9.89504 13.9926 10.6849 13.6325 11.3789C13.2724 12.0729 12.7027 12.6357 12.0043 12.9872C11.3059 13.3387 10.5145 13.4611 9.74253 13.3368C8.97061 13.2126 8.2575 12.8482 7.70464 12.2953C7.15179 11.7425 6.78733 11.0294 6.66312 10.2574C6.53891 9.4855 6.66126 8.69406 7.01277 7.99568C7.36429 7.2973 7.92707 6.72754 8.62106 6.36744C9.31506 6.00733 10.1049 5.87523 10.8783 5.98992C11.6672 6.1069 12.3976 6.47451 12.9615 7.03844C13.5255 7.60238 13.8931 8.33274 14.01 9.12163Z" stroke="white" stroke-linecap="round" stroke-linejoin="round"/>
<path d="M15.4041 4.59595H15.4141" stroke="white" stroke-width="1.8" stroke-linecap="round" stroke-linejoin="round"/>
</svg>
