<svg width="21" height="20" viewBox="0 0 21 20" fill="none" xmlns="http://www.w3.org/2000/svg">
<path d="M14.6544 6.2832C16.211 6.2832 17.7039 6.90157 18.8046 8.00226C19.9053 9.10295 20.5237 10.5958 20.5237 12.1524V18.9998H16.6108V12.1524C16.6108 11.6336 16.4047 11.1359 16.0378 10.769C15.6709 10.4021 15.1733 10.196 14.6544 10.196C14.1356 10.196 13.6379 10.4021 13.271 10.769C12.9042 11.1359 12.698 11.6336 12.698 12.1524V18.9998H8.78522V12.1524C8.78522 10.5958 9.40358 9.10295 10.5043 8.00226C11.605 6.90157 13.0978 6.2832 14.6544 6.2832V6.2832Z" stroke="white" stroke-width="0.8" stroke-linecap="round" stroke-linejoin="round"/>
<path d="M4.87241 7.2616H0.959595V19H4.87241V7.2616Z" stroke="white" stroke-width="0.8" stroke-linecap="round" stroke-linejoin="round"/>
<path d="M2.916 4.32687C3.99649 4.32687 4.87241 3.45096 4.87241 2.37047C4.87241 1.28998 3.99649 0.414062 2.916 0.414062C1.83551 0.414062 0.959595 1.28998 0.959595 2.37047C0.959595 3.45096 1.83551 4.32687 2.916 4.32687Z" stroke="white" stroke-width="0.8" stroke-linecap="round" stroke-linejoin="round"/>
</svg>
